<svg width="161" height="50" viewBox="0 0 161 50" fill="none" xmlns="http://www.w3.org/2000/svg">
<path d="M0 50C0 22.3858 22.3858 0 50 0H161C161 27.6142 138.614 50 111 50H0Z" fill="#FFFD54"/>
<mask id="path-2-outside-1_24_63" maskUnits="userSpaceOnUse" x="11" y="17" width="142" height="17" fill="black">
<rect fill="white" x="11" y="17" width="142" height="17"/>
<path d="M15.5724 32C14.9591 31.9867 14.4658 31.8933 14.0924 31.72C13.7191 31.5333 13.4391 31.2333 13.2524 30.82C13.0658 30.4067 12.9724 29.8533 12.9724 29.16V20.7C12.9724 19.9933 13.1791 19.42 13.5924 18.98C14.0058 18.5267 14.5524 18.3 15.2324 18.3C16.0324 18.3 16.6191 18.4467 16.9924 18.74C17.3791 19.0333 17.5724 19.6267 17.5724 20.52V28.54H20.9924C21.7658 28.54 22.3058 28.6533 22.6124 28.88C22.9324 29.1067 23.0924 29.5733 23.0924 30.28C23.0924 31 22.9124 31.4667 22.5524 31.68C22.1924 31.8933 21.6058 32 20.7924 32H15.5724ZM33.3204 23.88C34.0271 23.88 34.5204 23.9933 34.8004 24.22C35.0937 24.4467 35.2404 24.8333 35.2404 25.38C35.2404 25.8333 35.0671 26.16 34.7204 26.36C34.3871 26.5467 33.8604 26.64 33.1404 26.64H29.9004V28.76L34.2404 28.78C34.9871 28.78 35.5204 28.8933 35.8404 29.12C36.1737 29.3333 36.3404 29.72 36.3404 30.28C36.3404 30.92 36.1471 31.3667 35.7604 31.62C35.3871 31.8733 34.8137 32 34.0404 32H27.5604C26.7737 32 26.1937 31.7933 25.8204 31.38C25.4604 30.9533 25.2804 30.2067 25.2804 29.14V20.7C25.2804 19.1 26.0404 18.3 27.5604 18.3H34.0404C34.8137 18.3 35.3871 18.42 35.7604 18.66C36.1471 18.9 36.3404 19.3333 36.3404 19.96C36.3404 20.5467 36.1737 20.96 35.8404 21.2C35.5204 21.4267 34.9871 21.54 34.2404 21.54H29.8804V23.88H33.3204ZM50.4779 24.68L47.9779 29.8C47.7646 30.2267 47.5379 30.5333 47.2979 30.72C47.0579 30.8933 46.7712 30.98 46.4379 30.98C46.0112 30.98 45.6512 30.8333 45.3579 30.54C45.0646 30.2333 44.6846 29.6867 44.2179 28.9L41.8979 24.68V30.34C41.8979 30.9133 41.7646 31.3333 41.4979 31.6C41.2446 31.8667 40.8579 32 40.3379 32C39.7512 32 39.3246 31.8733 39.0579 31.62C38.7912 31.3533 38.6579 30.84 38.6579 30.08V21.36C38.6579 20.3333 38.8912 19.56 39.3579 19.04C39.8246 18.52 40.6112 18.26 41.7179 18.26C42.1312 18.26 42.4912 18.3333 42.7979 18.48C43.1046 18.6133 43.3312 18.7733 43.4779 18.96C43.6379 19.1333 43.7912 19.3533 43.9379 19.62L46.6179 25.48L49.4579 19.72C49.9512 18.76 50.8379 18.28 52.1179 18.28C52.7179 18.28 53.2312 18.3867 53.6579 18.6C54.0846 18.8 54.4179 19.1333 54.6579 19.6C54.9112 20.0533 55.0379 20.6267 55.0379 21.32V30.02C55.0246 31.34 54.1912 32 52.5379 32C51.9379 32 51.4446 31.84 51.0579 31.52C50.6846 31.1867 50.4912 30.6533 50.4779 29.92V24.68ZM64.3623 29.2C64.8156 29.2 65.2023 29 65.5223 28.6C65.8556 28.2 66.0889 27.7067 66.2223 27.12C66.3689 26.5333 66.4423 25.9067 66.4423 25.24C66.4423 24.56 66.3689 23.92 66.2223 23.32C66.0756 22.7067 65.8356 22.1867 65.5023 21.76C65.1823 21.3333 64.8023 21.12 64.3623 21.12C63.9356 21.12 63.5623 21.3333 63.2423 21.76C62.9223 22.1867 62.6823 22.7067 62.5223 23.32C62.3623 23.9333 62.2823 24.5733 62.2823 25.24C62.2823 25.9067 62.3556 26.5333 62.5023 27.12C62.6623 27.7067 62.9023 28.2 63.2223 28.6C63.5556 29 63.9356 29.2 64.3623 29.2ZM67.9023 31.34C66.8489 31.86 65.6623 32.12 64.3423 32.12C63.0356 32.12 61.8556 31.86 60.8023 31.34C59.7623 30.8067 58.9289 30.0133 58.3023 28.96C57.6756 27.9067 57.3623 26.6667 57.3623 25.24C57.3623 23.08 58.0089 21.3667 59.3023 20.1C60.6089 18.82 62.2956 18.18 64.3623 18.18C66.4289 18.18 68.1156 18.82 69.4223 20.1C70.7289 21.3667 71.3823 23.08 71.3823 25.24C71.3823 26.6667 71.0623 27.9067 70.4223 28.96C69.7956 30.0133 68.9556 30.8067 67.9023 31.34ZM86.536 30.1C86.536 30.6867 86.3627 31.1533 86.016 31.5C85.6694 31.8333 85.1627 32 84.496 32C84.3227 32 84.1494 31.98 83.976 31.94C83.8027 31.9 83.616 31.8267 83.416 31.72C83.2294 31.6133 83.0627 31.5133 82.916 31.42C82.7694 31.3267 82.5827 31.1867 82.356 31C82.1427 30.8 81.9694 30.6467 81.836 30.54C81.716 30.42 81.5227 30.2333 81.256 29.98C80.9894 29.7267 80.796 29.54 80.676 29.42L77.016 25.96V30.3C77.016 30.9533 76.8894 31.4 76.636 31.64C76.396 31.88 76.0094 32 75.476 32C74.8894 32 74.456 31.8667 74.176 31.6C73.896 31.3333 73.756 30.8867 73.756 30.26V20.6C73.756 19.84 73.9494 19.2667 74.336 18.88C74.7227 18.4933 75.276 18.3 75.996 18.3C76.4894 18.3 76.8827 18.38 77.176 18.54C77.4827 18.6867 77.8427 18.96 78.256 19.36L83.316 24.4V20.04C83.316 19.4667 83.456 19.04 83.736 18.76C84.0294 18.4667 84.4227 18.32 84.916 18.32C85.4894 18.32 85.9027 18.4533 86.156 18.72C86.4094 18.9867 86.536 19.42 86.536 20.02V30.1ZM100.115 18.16C101.702 18.16 103.055 18.4867 104.175 19.14C105.295 19.7933 105.855 20.4867 105.855 21.22C105.855 21.42 105.809 21.5933 105.715 21.74C105.635 21.8733 105.529 21.9733 105.395 22.04C105.275 22.0933 105.142 22.12 104.995 22.12C104.755 22.12 104.395 22 103.915 21.76C103.435 21.5067 102.902 21.26 102.315 21.02C101.729 20.7667 101.189 20.64 100.695 20.64C99.9087 20.64 99.5154 20.96 99.5154 21.6C99.5154 21.8 99.5754 21.9933 99.6954 22.18C99.8287 22.3533 100.035 22.54 100.315 22.74C100.595 22.9267 100.869 23.0933 101.135 23.24C101.402 23.3867 101.769 23.5867 102.235 23.84C102.702 24.08 103.095 24.2933 103.415 24.48C104.442 25.0667 105.162 25.6267 105.575 26.16C105.989 26.6933 106.195 27.3067 106.195 28C106.195 30.76 104.335 32.14 100.615 32.14C99.8821 32.14 99.1687 32.0667 98.4754 31.92C97.7954 31.7733 97.1954 31.58 96.6754 31.34C96.1687 31.1 95.7154 30.8333 95.3154 30.54C94.9287 30.2467 94.6354 29.9467 94.4354 29.64C94.2354 29.3333 94.1354 29.0467 94.1354 28.78C94.1354 28.4867 94.2287 28.24 94.4154 28.04C94.6154 27.8267 94.9021 27.72 95.2754 27.72C95.5554 27.72 96.2287 27.9 97.2954 28.26C98.3621 28.6067 99.2221 28.78 99.8754 28.78C100.475 28.78 100.775 28.5733 100.775 28.16C100.775 28.04 100.749 27.9333 100.695 27.84C100.655 27.7333 100.575 27.6333 100.455 27.54C100.349 27.4333 100.222 27.34 100.075 27.26C99.9421 27.1667 99.7487 27.0533 99.4954 26.92C99.2554 26.7867 99.0087 26.6533 98.7554 26.52C98.5154 26.3867 98.1954 26.2133 97.7954 26C97.3954 25.7867 97.0087 25.5733 96.6354 25.36C96.1421 25.08 95.7154 24.7333 95.3554 24.32C95.0087 23.9067 94.7554 23.5 94.5954 23.1C94.4354 22.6867 94.3554 22.3067 94.3554 21.96C94.3554 20.84 94.8554 19.9267 95.8554 19.22C96.8554 18.5133 98.2754 18.16 100.115 18.16ZM121.622 29C121.622 30.08 121.429 30.8533 121.042 31.32C120.655 31.7733 120.069 32 119.282 32C118.509 32 117.942 31.7933 117.582 31.38C117.222 30.9533 117.042 30.2067 117.042 29.14L117.022 26.88H112.942V29C112.942 30.0933 112.755 30.8667 112.382 31.32C112.009 31.7733 111.415 32 110.602 32C109.829 32 109.262 31.7933 108.902 31.38C108.542 30.9533 108.362 30.2067 108.362 29.14L108.302 20.7C108.302 19.8733 108.509 19.2667 108.922 18.88C109.349 18.4933 109.909 18.3 110.602 18.3C111.402 18.3 111.989 18.4467 112.362 18.74C112.749 19.0333 112.942 19.6267 112.942 20.52V23.88H117.002V20.7C117.002 20.14 117.102 19.68 117.302 19.32C117.515 18.9467 117.782 18.6867 118.102 18.54C118.435 18.38 118.829 18.3 119.282 18.3C120.055 18.3 120.635 18.4467 121.022 18.74C121.422 19.0333 121.622 19.6267 121.622 20.52V29ZM130.71 29.2C131.163 29.2 131.55 29 131.87 28.6C132.203 28.2 132.437 27.7067 132.57 27.12C132.717 26.5333 132.79 25.9067 132.79 25.24C132.79 24.56 132.717 23.92 132.57 23.32C132.423 22.7067 132.183 22.1867 131.85 21.76C131.53 21.3333 131.15 21.12 130.71 21.12C130.283 21.12 129.91 21.3333 129.59 21.76C129.27 22.1867 129.03 22.7067 128.87 23.32C128.71 23.9333 128.63 24.5733 128.63 25.24C128.63 25.9067 128.703 26.5333 128.85 27.12C129.01 27.7067 129.25 28.2 129.57 28.6C129.903 29 130.283 29.2 130.71 29.2ZM134.25 31.34C133.197 31.86 132.01 32.12 130.69 32.12C129.383 32.12 128.203 31.86 127.15 31.34C126.11 30.8067 125.277 30.0133 124.65 28.96C124.023 27.9067 123.71 26.6667 123.71 25.24C123.71 23.08 124.357 21.3667 125.65 20.1C126.957 18.82 128.643 18.18 130.71 18.18C132.777 18.18 134.463 18.82 135.77 20.1C137.077 21.3667 137.73 23.08 137.73 25.24C137.73 26.6667 137.41 27.9067 136.77 28.96C136.143 30.0133 135.303 30.8067 134.25 31.34ZM147.344 23.04C147.344 22.5467 147.297 22.16 147.204 21.88C147.11 21.5867 146.944 21.3667 146.704 21.22C146.477 21.0733 146.224 20.98 145.944 20.94C145.677 20.8867 145.304 20.86 144.824 20.86V25.26C145.197 25.26 145.524 25.2267 145.804 25.16C146.097 25.0933 146.364 24.98 146.604 24.82C146.844 24.66 147.024 24.4333 147.144 24.14C147.277 23.8333 147.344 23.4667 147.344 23.04ZM144.824 29C144.824 30.08 144.624 30.8533 144.224 31.32C143.824 31.7733 143.21 32 142.384 32C141.557 32 140.95 31.7933 140.564 31.38C140.177 30.9533 139.984 30.2067 139.984 29.14V20.7C139.984 19.8867 140.204 19.2867 140.644 18.9C141.084 18.5 141.664 18.3 142.384 18.3H145.944C146.81 18.3 147.61 18.42 148.344 18.66C149.077 18.8867 149.71 19.2133 150.244 19.64C150.79 20.0533 151.21 20.58 151.504 21.22C151.81 21.8467 151.964 22.5467 151.964 23.32C151.964 24.2667 151.69 25.0933 151.144 25.8C150.597 26.4933 149.877 27.0133 148.984 27.36C148.09 27.7067 147.084 27.88 145.964 27.88H144.824V29Z"/>
</mask>
<path d="M15.5724 32C14.9591 31.9867 14.4658 31.8933 14.0924 31.72C13.7191 31.5333 13.4391 31.2333 13.2524 30.82C13.0658 30.4067 12.9724 29.8533 12.9724 29.16V20.7C12.9724 19.9933 13.1791 19.42 13.5924 18.98C14.0058 18.5267 14.5524 18.3 15.2324 18.3C16.0324 18.3 16.6191 18.4467 16.9924 18.74C17.3791 19.0333 17.5724 19.6267 17.5724 20.52V28.54H20.9924C21.7658 28.54 22.3058 28.6533 22.6124 28.88C22.9324 29.1067 23.0924 29.5733 23.0924 30.28C23.0924 31 22.9124 31.4667 22.5524 31.68C22.1924 31.8933 21.6058 32 20.7924 32H15.5724ZM33.3204 23.88C34.0271 23.88 34.5204 23.9933 34.8004 24.22C35.0937 24.4467 35.2404 24.8333 35.2404 25.38C35.2404 25.8333 35.0671 26.16 34.7204 26.36C34.3871 26.5467 33.8604 26.64 33.1404 26.64H29.9004V28.76L34.2404 28.78C34.9871 28.78 35.5204 28.8933 35.8404 29.12C36.1737 29.3333 36.3404 29.72 36.3404 30.28C36.3404 30.92 36.1471 31.3667 35.7604 31.62C35.3871 31.8733 34.8137 32 34.0404 32H27.5604C26.7737 32 26.1937 31.7933 25.8204 31.38C25.4604 30.9533 25.2804 30.2067 25.2804 29.14V20.7C25.2804 19.1 26.0404 18.3 27.5604 18.3H34.0404C34.8137 18.3 35.3871 18.42 35.7604 18.66C36.1471 18.9 36.3404 19.3333 36.3404 19.96C36.3404 20.5467 36.1737 20.96 35.8404 21.2C35.5204 21.4267 34.9871 21.54 34.2404 21.54H29.8804V23.88H33.3204ZM50.4779 24.68L47.9779 29.8C47.7646 30.2267 47.5379 30.5333 47.2979 30.72C47.0579 30.8933 46.7712 30.98 46.4379 30.98C46.0112 30.98 45.6512 30.8333 45.3579 30.54C45.0646 30.2333 44.6846 29.6867 44.2179 28.9L41.8979 24.68V30.34C41.8979 30.9133 41.7646 31.3333 41.4979 31.6C41.2446 31.8667 40.8579 32 40.3379 32C39.7512 32 39.3246 31.8733 39.0579 31.62C38.7912 31.3533 38.6579 30.84 38.6579 30.08V21.36C38.6579 20.3333 38.8912 19.56 39.3579 19.04C39.8246 18.52 40.6112 18.26 41.7179 18.26C42.1312 18.26 42.4912 18.3333 42.7979 18.48C43.1046 18.6133 43.3312 18.7733 43.4779 18.96C43.6379 19.1333 43.7912 19.3533 43.9379 19.62L46.6179 25.48L49.4579 19.72C49.9512 18.76 50.8379 18.28 52.1179 18.28C52.7179 18.28 53.2312 18.3867 53.6579 18.6C54.0846 18.8 54.4179 19.1333 54.6579 19.6C54.9112 20.0533 55.0379 20.6267 55.0379 21.32V30.02C55.0246 31.34 54.1912 32 52.5379 32C51.9379 32 51.4446 31.84 51.0579 31.52C50.6846 31.1867 50.4912 30.6533 50.4779 29.92V24.68ZM64.3623 29.2C64.8156 29.2 65.2023 29 65.5223 28.6C65.8556 28.2 66.0889 27.7067 66.2223 27.12C66.3689 26.5333 66.4423 25.9067 66.4423 25.24C66.4423 24.56 66.3689 23.92 66.2223 23.32C66.0756 22.7067 65.8356 22.1867 65.5023 21.76C65.1823 21.3333 64.8023 21.12 64.3623 21.12C63.9356 21.12 63.5623 21.3333 63.2423 21.76C62.9223 22.1867 62.6823 22.7067 62.5223 23.32C62.3623 23.9333 62.2823 24.5733 62.2823 25.24C62.2823 25.9067 62.3556 26.5333 62.5023 27.12C62.6623 27.7067 62.9023 28.2 63.2223 28.6C63.5556 29 63.9356 29.2 64.3623 29.2ZM67.9023 31.34C66.8489 31.86 65.6623 32.12 64.3423 32.12C63.0356 32.12 61.8556 31.86 60.8023 31.34C59.7623 30.8067 58.9289 30.0133 58.3023 28.96C57.6756 27.9067 57.3623 26.6667 57.3623 25.24C57.3623 23.08 58.0089 21.3667 59.3023 20.1C60.6089 18.82 62.2956 18.18 64.3623 18.18C66.4289 18.18 68.1156 18.82 69.4223 20.1C70.7289 21.3667 71.3823 23.08 71.3823 25.24C71.3823 26.6667 71.0623 27.9067 70.4223 28.96C69.7956 30.0133 68.9556 30.8067 67.9023 31.34ZM86.536 30.1C86.536 30.6867 86.3627 31.1533 86.016 31.5C85.6694 31.8333 85.1627 32 84.496 32C84.3227 32 84.1494 31.98 83.976 31.94C83.8027 31.9 83.616 31.8267 83.416 31.72C83.2294 31.6133 83.0627 31.5133 82.916 31.42C82.7694 31.3267 82.5827 31.1867 82.356 31C82.1427 30.8 81.9694 30.6467 81.836 30.54C81.716 30.42 81.5227 30.2333 81.256 29.98C80.9894 29.7267 80.796 29.54 80.676 29.42L77.016 25.96V30.3C77.016 30.9533 76.8894 31.4 76.636 31.64C76.396 31.88 76.0094 32 75.476 32C74.8894 32 74.456 31.8667 74.176 31.6C73.896 31.3333 73.756 30.8867 73.756 30.26V20.6C73.756 19.84 73.9494 19.2667 74.336 18.88C74.7227 18.4933 75.276 18.3 75.996 18.3C76.4894 18.3 76.8827 18.38 77.176 18.54C77.4827 18.6867 77.8427 18.96 78.256 19.36L83.316 24.4V20.04C83.316 19.4667 83.456 19.04 83.736 18.76C84.0294 18.4667 84.4227 18.32 84.916 18.32C85.4894 18.32 85.9027 18.4533 86.156 18.72C86.4094 18.9867 86.536 19.42 86.536 20.02V30.1ZM100.115 18.16C101.702 18.16 103.055 18.4867 104.175 19.14C105.295 19.7933 105.855 20.4867 105.855 21.22C105.855 21.42 105.809 21.5933 105.715 21.74C105.635 21.8733 105.529 21.9733 105.395 22.04C105.275 22.0933 105.142 22.12 104.995 22.12C104.755 22.12 104.395 22 103.915 21.76C103.435 21.5067 102.902 21.26 102.315 21.02C101.729 20.7667 101.189 20.64 100.695 20.64C99.9087 20.64 99.5154 20.96 99.5154 21.6C99.5154 21.8 99.5754 21.9933 99.6954 22.18C99.8287 22.3533 100.035 22.54 100.315 22.74C100.595 22.9267 100.869 23.0933 101.135 23.24C101.402 23.3867 101.769 23.5867 102.235 23.84C102.702 24.08 103.095 24.2933 103.415 24.48C104.442 25.0667 105.162 25.6267 105.575 26.16C105.989 26.6933 106.195 27.3067 106.195 28C106.195 30.76 104.335 32.14 100.615 32.14C99.8821 32.14 99.1687 32.0667 98.4754 31.92C97.7954 31.7733 97.1954 31.58 96.6754 31.34C96.1687 31.1 95.7154 30.8333 95.3154 30.54C94.9287 30.2467 94.6354 29.9467 94.4354 29.64C94.2354 29.3333 94.1354 29.0467 94.1354 28.78C94.1354 28.4867 94.2287 28.24 94.4154 28.04C94.6154 27.8267 94.9021 27.72 95.2754 27.72C95.5554 27.72 96.2287 27.9 97.2954 28.26C98.3621 28.6067 99.2221 28.78 99.8754 28.78C100.475 28.78 100.775 28.5733 100.775 28.16C100.775 28.04 100.749 27.9333 100.695 27.84C100.655 27.7333 100.575 27.6333 100.455 27.54C100.349 27.4333 100.222 27.34 100.075 27.26C99.9421 27.1667 99.7487 27.0533 99.4954 26.92C99.2554 26.7867 99.0087 26.6533 98.7554 26.52C98.5154 26.3867 98.1954 26.2133 97.7954 26C97.3954 25.7867 97.0087 25.5733 96.6354 25.36C96.1421 25.08 95.7154 24.7333 95.3554 24.32C95.0087 23.9067 94.7554 23.5 94.5954 23.1C94.4354 22.6867 94.3554 22.3067 94.3554 21.96C94.3554 20.84 94.8554 19.9267 95.8554 19.22C96.8554 18.5133 98.2754 18.16 100.115 18.16ZM121.622 29C121.622 30.08 121.429 30.8533 121.042 31.32C120.655 31.7733 120.069 32 119.282 32C118.509 32 117.942 31.7933 117.582 31.38C117.222 30.9533 117.042 30.2067 117.042 29.14L117.022 26.88H112.942V29C112.942 30.0933 112.755 30.8667 112.382 31.32C112.009 31.7733 111.415 32 110.602 32C109.829 32 109.262 31.7933 108.902 31.38C108.542 30.9533 108.362 30.2067 108.362 29.14L108.302 20.7C108.302 19.8733 108.509 19.2667 108.922 18.88C109.349 18.4933 109.909 18.3 110.602 18.3C111.402 18.3 111.989 18.4467 112.362 18.74C112.749 19.0333 112.942 19.6267 112.942 20.52V23.88H117.002V20.7C117.002 20.14 117.102 19.68 117.302 19.32C117.515 18.9467 117.782 18.6867 118.102 18.54C118.435 18.38 118.829 18.3 119.282 18.3C120.055 18.3 120.635 18.4467 121.022 18.74C121.422 19.0333 121.622 19.6267 121.622 20.52V29ZM130.71 29.2C131.163 29.2 131.55 29 131.87 28.6C132.203 28.2 132.437 27.7067 132.57 27.12C132.717 26.5333 132.79 25.9067 132.79 25.24C132.79 24.56 132.717 23.92 132.57 23.32C132.423 22.7067 132.183 22.1867 131.85 21.76C131.53 21.3333 131.15 21.12 130.71 21.12C130.283 21.12 129.91 21.3333 129.59 21.76C129.27 22.1867 129.03 22.7067 128.87 23.32C128.71 23.9333 128.63 24.5733 128.63 25.24C128.63 25.9067 128.703 26.5333 128.85 27.12C129.01 27.7067 129.25 28.2 129.57 28.6C129.903 29 130.283 29.2 130.71 29.2ZM134.25 31.34C133.197 31.86 132.01 32.12 130.69 32.12C129.383 32.12 128.203 31.86 127.15 31.34C126.11 30.8067 125.277 30.0133 124.65 28.96C124.023 27.9067 123.71 26.6667 123.71 25.24C123.71 23.08 124.357 21.3667 125.65 20.1C126.957 18.82 128.643 18.18 130.71 18.18C132.777 18.18 134.463 18.82 135.77 20.1C137.077 21.3667 137.73 23.08 137.73 25.24C137.73 26.6667 137.41 27.9067 136.77 28.96C136.143 30.0133 135.303 30.8067 134.25 31.34ZM147.344 23.04C147.344 22.5467 147.297 22.16 147.204 21.88C147.11 21.5867 146.944 21.3667 146.704 21.22C146.477 21.0733 146.224 20.98 145.944 20.94C145.677 20.8867 145.304 20.86 144.824 20.86V25.26C145.197 25.26 145.524 25.2267 145.804 25.16C146.097 25.0933 146.364 24.98 146.604 24.82C146.844 24.66 147.024 24.4333 147.144 24.14C147.277 23.8333 147.344 23.4667 147.344 23.04ZM144.824 29C144.824 30.08 144.624 30.8533 144.224 31.32C143.824 31.7733 143.21 32 142.384 32C141.557 32 140.95 31.7933 140.564 31.38C140.177 30.9533 139.984 30.2067 139.984 29.14V20.7C139.984 19.8867 140.204 19.2867 140.644 18.9C141.084 18.5 141.664 18.3 142.384 18.3H145.944C146.81 18.3 147.61 18.42 148.344 18.66C149.077 18.8867 149.71 19.2133 150.244 19.64C150.79 20.0533 151.21 20.58 151.504 21.22C151.81 21.8467 151.964 22.5467 151.964 23.32C151.964 24.2667 151.69 25.0933 151.144 25.8C150.597 26.4933 149.877 27.0133 148.984 27.36C148.09 27.7067 147.084 27.88 145.964 27.88H144.824V29Z" fill="white"/>
<path d="M15.5724 32L15.5507 32.9998L15.5616 33H15.5724V32ZM14.0924 31.72L13.6452 32.6144L13.6582 32.6209L13.6713 32.627L14.0924 31.72ZM13.2524 30.82L14.1638 30.4084L13.2524 30.82ZM13.5924 18.98L14.3213 19.6647L14.3264 19.6593L14.3314 19.6538L13.5924 18.98ZM16.9924 18.74L16.3746 19.5263L16.3813 19.5316L16.388 19.5367L16.9924 18.74ZM17.5724 28.54H16.5724V29.54H17.5724V28.54ZM22.6124 28.88L22.018 29.6842L22.0262 29.6902L22.0344 29.696L22.6124 28.88ZM15.5942 31.0002C15.0573 30.9886 14.7157 30.9068 14.5135 30.813L13.6713 32.627C14.2159 32.8798 14.8609 32.9848 15.5507 32.9998L15.5942 31.0002ZM14.5396 30.8256C14.3902 30.7509 14.2646 30.6316 14.1638 30.4084L12.3411 31.2316C12.6136 31.835 13.048 32.3158 13.6452 32.6144L14.5396 30.8256ZM14.1638 30.4084C14.0582 30.1745 13.9724 29.7792 13.9724 29.16H11.9724C11.9724 29.9275 12.0734 30.6388 12.3411 31.2316L14.1638 30.4084ZM13.9724 29.16V20.7H11.9724V29.16H13.9724ZM13.9724 20.7C13.9724 20.2014 14.1115 19.888 14.3213 19.6647L12.8636 18.2953C12.2467 18.952 11.9724 19.7853 11.9724 20.7H13.9724ZM14.3314 19.6538C14.5335 19.4321 14.7997 19.3 15.2324 19.3V17.3C14.3051 17.3 13.478 17.6213 12.8535 18.3062L14.3314 19.6538ZM15.2324 19.3C15.9482 19.3 16.2626 19.4383 16.3746 19.5263L17.6103 17.9537C16.9756 17.4551 16.1167 17.3 15.2324 17.3V19.3ZM16.388 19.5367C16.3782 19.5292 16.4251 19.5567 16.4766 19.7148C16.53 19.8785 16.5724 20.1371 16.5724 20.52H18.5724C18.5724 19.5621 18.3798 18.5373 17.5968 17.9433L16.388 19.5367ZM16.5724 20.52V28.54H18.5724V20.52H16.5724ZM17.5724 29.54H20.9924V27.54H17.5724V29.54ZM20.9924 29.54C21.3353 29.54 21.5904 29.5656 21.772 29.6037C21.9594 29.643 22.02 29.6856 22.018 29.6842L23.2068 28.0758C22.6238 27.6449 21.7973 27.54 20.9924 27.54V29.54ZM22.0344 29.696C21.9835 29.66 21.9968 29.6378 22.0265 29.7243C22.0589 29.8188 22.0924 29.9934 22.0924 30.28H24.0924C24.0924 29.5001 23.9289 28.5871 23.1904 28.064L22.0344 29.696ZM22.0924 30.28C22.0924 30.5665 22.0553 30.7302 22.0244 30.8101C21.9989 30.8763 21.9936 30.8488 22.0426 30.8197L23.0622 32.5403C23.8972 32.0455 24.0924 31.094 24.0924 30.28H22.0924ZM22.0426 30.8197C21.9244 30.8898 21.5667 31 20.7924 31V33C21.6448 33 22.4605 32.8969 23.0622 32.5403L22.0426 30.8197ZM20.7924 31H15.5724V33H20.7924V31ZM34.8004 24.22L34.1712 24.9972L34.18 25.0044L34.189 25.0113L34.8004 24.22ZM34.7204 26.36L35.209 27.2326L35.2201 27.2262L34.7204 26.36ZM29.9004 26.64V25.64H28.9004V26.64H29.9004ZM29.9004 28.76H28.9004V29.7554L29.8958 29.76L29.9004 28.76ZM34.2404 28.78L34.2358 29.78H34.2404V28.78ZM35.8404 29.12L35.2624 29.936L35.2816 29.9496L35.3013 29.9623L35.8404 29.12ZM35.7604 31.62L35.2124 30.7835L35.2056 30.788L35.1989 30.7925L35.7604 31.62ZM25.8204 31.38L25.0561 32.0249L25.067 32.0378L25.0783 32.0503L25.8204 31.38ZM35.7604 18.66L35.2196 19.5012L35.2263 19.5055L35.233 19.5096L35.7604 18.66ZM35.8404 21.2L36.4184 22.016L36.4247 22.0115L35.8404 21.2ZM29.8804 21.54V20.54H28.8804V21.54H29.8804ZM29.8804 23.88H28.8804V24.88H29.8804V23.88ZM33.3204 24.88C33.6256 24.88 33.8458 24.905 33.9965 24.9396C34.1511 24.9751 34.1875 25.0104 34.1712 24.9972L35.4296 23.4428C34.8663 22.9868 34.0685 22.88 33.3204 22.88V24.88ZM34.189 25.0113C34.1731 24.999 34.1798 24.9934 34.1954 25.0347C34.2144 25.0847 34.2404 25.191 34.2404 25.38H36.2404C36.2404 24.6763 36.0499 23.9218 35.4118 23.4287L34.189 25.0113ZM34.2404 25.38C34.2404 25.4797 34.2217 25.5064 34.227 25.4963C34.2293 25.492 34.233 25.487 34.2363 25.4837C34.2392 25.4807 34.236 25.485 34.2207 25.4938L35.2201 27.2262C35.9228 26.8208 36.2404 26.1337 36.2404 25.38H34.2404ZM34.2318 25.4875C34.129 25.5451 33.816 25.64 33.1404 25.64V27.64C33.9048 27.64 34.6452 27.5483 35.209 27.2325L34.2318 25.4875ZM33.1404 25.64H29.9004V27.64H33.1404V25.64ZM28.9004 26.64V28.76H30.9004V26.64H28.9004ZM29.8958 29.76L34.2358 29.78L34.245 27.78L29.905 27.76L29.8958 29.76ZM34.2404 29.78C34.9394 29.78 35.2065 29.8964 35.2624 29.936L36.4184 28.304C35.8343 27.8903 35.0347 27.78 34.2404 27.78V29.78ZM35.3013 29.9623C35.2996 29.9611 35.2949 29.9575 35.2909 29.9527C35.2873 29.9483 35.2905 29.9505 35.2971 29.9658C35.3119 30.0002 35.3404 30.0935 35.3404 30.28H37.3404C37.3404 29.5335 37.1096 28.745 36.3795 28.2777L35.3013 29.9623ZM35.3404 30.28C35.3404 30.5043 35.3059 30.6326 35.2777 30.6978C35.2543 30.7517 35.2333 30.7698 35.2124 30.7835L36.3084 32.4565C37.0783 31.952 37.3404 31.1151 37.3404 30.28H35.3404ZM35.1989 30.7925C35.072 30.8786 34.7407 31 34.0404 31V33C34.8868 33 35.7021 32.868 36.3219 32.4475L35.1989 30.7925ZM34.0404 31H27.5604V33H34.0404V31ZM27.5604 31C26.9367 31 26.6785 30.8381 26.5625 30.7097L25.0783 32.0503C25.709 32.7485 26.6108 33 27.5604 33V31ZM26.5847 30.7351C26.4647 30.5929 26.2804 30.1571 26.2804 29.14H24.2804C24.2804 30.2563 24.4561 31.3137 25.0561 32.0249L26.5847 30.7351ZM26.2804 29.14V20.7H24.2804V29.14H26.2804ZM26.2804 20.7C26.2804 20.0417 26.4376 19.7338 26.5754 19.5887C26.704 19.4533 26.968 19.3 27.5604 19.3V17.3C26.6328 17.3 25.7568 17.5466 25.1254 18.2112C24.5032 18.8662 24.2804 19.7583 24.2804 20.7H26.2804ZM27.5604 19.3H34.0404V17.3H27.5604V19.3ZM34.0404 19.3C34.747 19.3 35.0877 19.4164 35.2196 19.5012L36.3012 17.8188C35.6864 17.4236 34.8805 17.3 34.0404 17.3V19.3ZM35.233 19.5096C35.2489 19.5195 35.2633 19.5302 35.2822 19.5724C35.3064 19.6268 35.3404 19.7442 35.3404 19.96H37.3404C37.3404 19.1321 37.0732 18.2979 36.2878 17.8104L35.233 19.5096ZM35.3404 19.96C35.3404 20.1636 35.3108 20.2793 35.288 20.336C35.2691 20.3828 35.2563 20.3883 35.2561 20.3885L36.4247 22.0115C37.1188 21.5118 37.3404 20.7216 37.3404 19.96H35.3404ZM35.2624 20.384C35.2065 20.4236 34.9394 20.54 34.2404 20.54V22.54C35.0347 22.54 35.8343 22.4297 36.4184 22.016L35.2624 20.384ZM34.2404 20.54H29.8804V22.54H34.2404V20.54ZM28.8804 21.54V23.88H30.8804V21.54H28.8804ZM29.8804 24.88H33.3204V22.88H29.8804V24.88ZM50.4779 24.68H51.4779L49.5793 24.2412L50.4779 24.68ZM47.9779 29.8L48.8724 30.2472L48.8765 30.2388L47.9779 29.8ZM47.2979 30.72L47.8834 31.5307L47.8978 31.5203L47.9118 31.5094L47.2979 30.72ZM45.3579 30.54L44.6353 31.2312L44.6429 31.2393L44.6508 31.2471L45.3579 30.54ZM44.2179 28.9L43.3416 29.3818L43.3495 29.3961L43.3578 29.4102L44.2179 28.9ZM41.8979 24.68L42.7742 24.1982L40.8979 24.68H41.8979ZM41.4979 31.6L40.7908 30.8929L40.7817 30.902L40.7729 30.9113L41.4979 31.6ZM39.0579 31.62L38.3508 32.3271L38.3599 32.3362L38.3691 32.345L39.0579 31.62ZM39.3579 19.04L40.1021 19.7079V19.7079L39.3579 19.04ZM42.7979 18.48L42.3664 19.3821L42.3827 19.3899L42.3992 19.3971L42.7979 18.48ZM43.4779 18.96L42.6916 19.5778L42.7161 19.6091L42.7431 19.6383L43.4779 18.96ZM43.9379 19.62L44.8473 19.2041L44.8319 19.1705L44.8141 19.1381L43.9379 19.62ZM46.6179 25.48L45.7085 25.8959L46.584 27.8102L47.5148 25.9222L46.6179 25.48ZM49.4579 19.72L48.5685 19.2629L48.5647 19.2703L48.561 19.2778L49.4579 19.72ZM53.6579 18.6L53.2107 19.4944L53.222 19.5001L53.2335 19.5055L53.6579 18.6ZM54.6579 19.6L53.7686 20.0573L53.7765 20.0727L53.785 20.0878L54.6579 19.6ZM55.0379 30.02L56.0379 30.0301V30.02H55.0379ZM51.0579 31.52L50.3919 32.2659L50.4059 32.2784L50.4203 32.2904L51.0579 31.52ZM50.4779 29.92H49.4779V29.9291L49.4781 29.9382L50.4779 29.92ZM49.5793 24.2412L47.0793 29.3612L48.8765 30.2388L51.3765 25.1188L49.5793 24.2412ZM47.0835 29.3528C46.9028 29.714 46.7579 29.8731 46.684 29.9306L47.9118 31.5094C48.3179 31.1936 48.6263 30.7393 48.8723 30.2472L47.0835 29.3528ZM46.7124 29.9093C46.6639 29.9443 46.5887 29.98 46.4379 29.98V31.98C46.9538 31.98 47.4519 31.8423 47.8834 31.5307L46.7124 29.9093ZM46.4379 29.98C46.268 29.98 46.1649 29.9328 46.065 29.8329L44.6508 31.2471C45.1376 31.7339 45.7545 31.98 46.4379 31.98V29.98ZM46.0805 29.8488C45.8715 29.6302 45.5397 29.1682 45.078 28.3898L43.3578 29.4102C43.8294 30.2051 44.2577 30.8365 44.6353 31.2312L46.0805 29.8488ZM45.0942 28.4182L42.7742 24.1982L41.0216 25.1618L43.3416 29.3818L45.0942 28.4182ZM40.8979 24.68V30.34H42.8979V24.68H40.8979ZM40.8979 30.34C40.8979 30.7837 40.7919 30.8917 40.7908 30.8929L42.205 32.3071C42.7372 31.7749 42.8979 31.0429 42.8979 30.34H40.8979ZM40.7729 30.9113C40.7686 30.9157 40.7508 30.9343 40.6919 30.9546C40.6275 30.9768 40.5156 31 40.3379 31V33C41.0164 33 41.7137 32.8247 42.2229 32.2887L40.7729 30.9113ZM40.3379 31C40.1122 31 39.9595 30.9751 39.8625 30.9464C39.8155 30.9324 39.7857 30.9187 39.7685 30.9093C39.76 30.9046 39.7544 30.9009 39.7512 30.8986C39.748 30.8963 39.7467 30.8951 39.7466 30.895L38.3691 32.345C38.9057 32.8547 39.6407 33 40.3379 33V31ZM39.765 30.9129C39.7987 30.9466 39.765 30.9344 39.7258 30.7836C39.6874 30.636 39.6579 30.4084 39.6579 30.08H37.6579C37.6579 30.8725 37.7792 31.7556 38.3508 32.3271L39.765 30.9129ZM39.6579 30.08V21.36H37.6579V30.08H39.6579ZM39.6579 21.36C39.6579 20.4664 39.8628 19.9746 40.1021 19.7079L38.6137 18.3721C37.9197 19.1454 37.6579 20.2003 37.6579 21.36H39.6579ZM40.1021 19.7079C40.2923 19.496 40.7322 19.26 41.7179 19.26V17.26C40.4902 17.26 39.3568 17.544 38.6137 18.3721L40.1021 19.7079ZM41.7179 19.26C42.0136 19.26 42.2204 19.3123 42.3664 19.3821L43.2294 17.5779C42.7621 17.3544 42.2489 17.26 41.7179 17.26V19.26ZM42.3992 19.3971C42.6124 19.4898 42.6806 19.5638 42.6916 19.5778L44.2642 18.3422C43.9819 17.9828 43.5967 17.7369 43.1966 17.5629L42.3992 19.3971ZM42.7431 19.6383C42.835 19.7378 42.9434 19.8869 43.0617 20.1019L44.8141 19.1381C44.6391 18.8198 44.4408 18.5288 44.2127 18.2817L42.7431 19.6383ZM43.0285 20.0359L45.7085 25.8959L47.5273 25.0641L44.8473 19.2041L43.0285 20.0359ZM47.5148 25.9222L50.3548 20.1622L48.561 19.2778L45.721 25.0378L47.5148 25.9222ZM50.3473 20.1771C50.5087 19.863 50.7155 19.6566 50.969 19.5194C51.2319 19.3771 51.6003 19.28 52.1179 19.28V17.28C51.3555 17.28 50.6406 17.4229 50.0168 17.7606C49.3836 18.1034 48.9004 18.617 48.5685 19.2629L50.3473 20.1771ZM52.1179 19.28C52.6017 19.28 52.954 19.3661 53.2107 19.4944L54.1051 17.7056C53.5085 17.4072 52.8341 17.28 52.1179 17.28V19.28ZM53.2335 19.5055C53.4371 19.6009 53.6176 19.7638 53.7686 20.0573L55.5472 19.1427C55.2182 18.5029 54.732 17.9991 54.0823 17.6945L53.2335 19.5055ZM53.785 20.0878C53.9317 20.3504 54.0379 20.7423 54.0379 21.32H56.0379C56.0379 20.511 55.8908 19.7563 55.5308 19.1122L53.785 20.0878ZM54.0379 21.32V30.02H56.0379V21.32H54.0379ZM54.0379 30.0099C54.0335 30.448 53.9056 30.6232 53.782 30.7211C53.6165 30.8522 53.2572 31 52.5379 31V33C53.4719 33 54.356 32.8178 55.0238 32.2889C55.7335 31.7268 56.0289 30.912 56.0378 30.0301L54.0379 30.0099ZM52.5379 31C52.1232 31 51.8694 30.8935 51.6955 30.7496L50.4203 32.2904C51.0197 32.7865 51.7526 33 52.5379 33V31ZM51.7239 30.7741C51.6392 30.6984 51.4884 30.4875 51.4777 29.9018L49.4781 29.9382C49.4941 30.8191 49.73 31.6749 50.3919 32.2659L51.7239 30.7741ZM51.4779 29.92V24.68H49.4779V29.92H51.4779ZM65.5223 28.6L64.7541 27.9598L64.7477 27.9675L64.7414 27.9753L65.5223 28.6ZM66.2223 27.12L65.2521 26.8775L65.2495 26.8879L65.2471 26.8984L66.2223 27.12ZM66.2223 23.32L65.2497 23.5526L65.2509 23.5575L66.2223 23.32ZM65.5023 21.76L64.7023 22.36L64.7082 22.3679L64.7142 22.3756L65.5023 21.76ZM62.5223 23.32L61.5547 23.0676V23.0676L62.5223 23.32ZM62.5023 27.12L61.5321 27.3625L61.5347 27.3729L61.5375 27.3831L62.5023 27.12ZM63.2223 28.6L62.4414 29.2247L62.4477 29.2325L62.4541 29.2402L63.2223 28.6ZM67.9023 31.34L68.345 32.2367L68.354 32.2322L67.9023 31.34ZM60.8023 31.34L60.346 32.2298L60.3528 32.2333L60.3596 32.2367L60.8023 31.34ZM58.3023 28.96L59.1617 28.4487L58.3023 28.96ZM59.3023 20.1L60.002 20.8144L60.0021 20.8144L59.3023 20.1ZM69.4223 20.1L68.7225 20.8144L68.7262 20.818L69.4223 20.1ZM70.4223 28.96L69.5676 28.4407L69.5629 28.4487L70.4223 28.96ZM64.3623 30.2C65.1614 30.2 65.8213 29.827 66.3031 29.2247L64.7414 27.9753C64.5833 28.173 64.4698 28.2 64.3623 28.2V30.2ZM66.2905 29.2402C66.7395 28.7014 67.0345 28.0582 67.1974 27.3416L65.2471 26.8984C65.1433 27.3551 64.9717 27.6986 64.7541 27.9598L66.2905 29.2402ZM67.1924 27.3625C67.3608 26.6889 67.4423 25.9802 67.4423 25.24H65.4423C65.4423 25.8332 65.3771 26.3777 65.2521 26.8775L67.1924 27.3625ZM67.4423 25.24C67.4423 24.4879 67.3611 23.7676 67.1937 23.0825L65.2509 23.5575C65.3767 24.0724 65.4423 24.6321 65.4423 25.24H67.4423ZM67.1949 23.0874C67.0203 22.3575 66.7253 21.7011 66.2903 21.1444L64.7142 22.3756C64.9459 22.6722 65.1309 23.0559 65.2497 23.5526L67.1949 23.0874ZM66.3023 21.16C65.8383 20.5414 65.185 20.12 64.3623 20.12V22.12C64.4195 22.12 64.5262 22.1253 64.7023 22.36L66.3023 21.16ZM64.3623 20.12C63.5428 20.12 62.8988 20.5514 62.4423 21.16L64.0423 22.36C64.2258 22.1153 64.3285 22.12 64.3623 22.12V20.12ZM62.4423 21.16C62.0312 21.7082 61.7414 22.3518 61.5547 23.0676L63.4899 23.5724C63.6232 23.0615 63.8134 22.6652 64.0423 22.36L62.4423 21.16ZM61.5547 23.0676C61.3721 23.7675 61.2823 24.4926 61.2823 25.24H63.2823C63.2823 24.6541 63.3525 24.0992 63.4899 23.5724L61.5547 23.0676ZM61.2823 25.24C61.2823 25.9802 61.3637 26.6889 61.5321 27.3625L63.4724 26.8775C63.3475 26.3777 63.2823 25.8332 63.2823 25.24H61.2823ZM61.5375 27.3831C61.7268 28.0773 62.0216 28.7 62.4414 29.2247L64.0031 27.9753C63.7829 27.7 63.5977 27.336 63.467 26.8569L61.5375 27.3831ZM62.4541 29.2402C62.9314 29.8131 63.5739 30.2 64.3623 30.2V28.2C64.2974 28.2 64.1798 28.1869 63.9905 27.9598L62.4541 29.2402ZM67.4596 30.4433C66.5601 30.8874 65.5279 31.12 64.3423 31.12V33.12C65.7966 33.12 67.1377 32.8326 68.3449 32.2367L67.4596 30.4433ZM64.3423 31.12C63.1717 31.12 62.1458 30.888 61.2449 30.4433L60.3596 32.2367C61.5654 32.832 62.8995 33.12 64.3423 33.12V31.12ZM61.2586 30.4502C60.3942 30.0069 59.6971 29.3487 59.1617 28.4487L57.4429 29.4713C58.1607 30.6779 59.1304 31.6064 60.346 32.2298L61.2586 30.4502ZM59.1617 28.4487C58.6412 27.5739 58.3623 26.5166 58.3623 25.24H56.3623C56.3623 26.8167 56.71 28.2395 57.4429 29.4713L59.1617 28.4487ZM58.3623 25.24C58.3623 23.293 58.9372 21.8572 60.002 20.8144L58.6026 19.3856C57.0806 20.8761 56.3623 22.867 56.3623 25.24H58.3623ZM60.0021 20.8144C61.097 19.7418 62.5203 19.18 64.3623 19.18V17.18C62.0709 17.18 60.1209 17.8982 58.6025 19.3856L60.0021 20.8144ZM64.3623 19.18C66.2042 19.18 67.6276 19.7418 68.7225 20.8144L70.1221 19.3856C68.6037 17.8982 66.6537 17.18 64.3623 17.18V19.18ZM68.7262 20.818C69.8026 21.8614 70.3823 23.296 70.3823 25.24H72.3823C72.3823 22.864 71.6553 20.8719 70.1183 19.382L68.7262 20.818ZM70.3823 25.24C70.3823 26.5129 70.0984 27.5672 69.5677 28.4407L71.2769 29.4793C72.0261 28.2461 72.3823 26.8205 72.3823 25.24H70.3823ZM69.5629 28.4487C69.0293 29.3455 68.3279 30.0036 67.4506 30.4478L68.354 32.2322C69.5833 31.6097 70.5619 30.6811 71.2817 29.4713L69.5629 28.4487ZM86.016 31.5L86.7091 32.2208L86.7162 32.214L86.7231 32.2071L86.016 31.5ZM83.416 31.72L82.9199 32.5882L82.9326 32.5955L82.9454 32.6024L83.416 31.72ZM82.916 31.42L83.4529 30.5763L83.4529 30.5763L82.916 31.42ZM82.356 31L81.6721 31.7295L81.6955 31.7515L81.7203 31.7719L82.356 31ZM81.836 30.54L81.1289 31.2471L81.1681 31.2863L81.2113 31.3209L81.836 30.54ZM81.256 29.98L81.9448 29.255V29.255L81.256 29.98ZM80.676 29.42L81.3831 28.7129L81.3732 28.703L81.363 28.6933L80.676 29.42ZM77.016 25.96L77.703 25.2333L76.016 23.6385V25.96H77.016ZM76.636 31.64L75.9483 30.914L75.9385 30.9233L75.9289 30.9329L76.636 31.64ZM74.176 31.6L74.8657 30.8759L74.176 31.6ZM74.336 18.88L75.0431 19.5871V19.5871L74.336 18.88ZM77.176 18.54L76.6972 19.4179L76.7206 19.4306L76.7446 19.4421L77.176 18.54ZM78.256 19.36L78.9617 18.6515L78.9566 18.6464L78.9514 18.6414L78.256 19.36ZM83.316 24.4L82.6103 25.1085L84.316 26.8075V24.4H83.316ZM85.536 30.1C85.536 30.4773 85.4319 30.6699 85.3089 30.7929L86.7231 32.2071C87.2935 31.6368 87.536 30.896 87.536 30.1H85.536ZM85.3229 30.7792C85.2245 30.8738 85.0053 31 84.496 31V33C85.3201 33 86.1142 32.7929 86.7091 32.2208L85.3229 30.7792ZM84.496 31C84.4003 31 84.3024 30.989 84.2009 30.9656L83.7512 32.9144C83.9963 32.971 84.245 33 84.496 33V31ZM84.2009 30.9656C84.1328 30.9499 84.0292 30.9137 83.8866 30.8376L82.9454 32.6024C83.2029 32.7397 83.4726 32.8501 83.7512 32.9144L84.2009 30.9656ZM83.9122 30.8518C83.7362 30.7512 83.5835 30.6594 83.4529 30.5763L82.3792 32.2637C82.5419 32.3672 82.7225 32.4755 82.9199 32.5882L83.9122 30.8518ZM83.4529 30.5763C83.356 30.5147 83.2052 30.4038 82.9917 30.2281L81.7203 31.7719C81.9602 31.9695 82.1827 32.1387 82.3792 32.2637L83.4529 30.5763ZM83.04 30.2705C82.8189 30.0632 82.6238 29.8896 82.4607 29.7591L81.2113 31.3209C81.3149 31.4037 81.4665 31.5368 81.6721 31.7295L83.04 30.2705ZM82.5431 29.8329C82.4135 29.7032 82.2122 29.5091 81.9448 29.255L80.5673 30.705C80.8332 30.9576 81.0186 31.1368 81.1289 31.2471L82.5431 29.8329ZM81.9448 29.255C81.6789 29.0024 81.4935 28.8232 81.3831 28.7129L79.9689 30.1271C80.0986 30.2568 80.2998 30.4509 80.5673 30.705L81.9448 29.255ZM81.363 28.6933L77.703 25.2333L76.329 26.6867L79.9891 30.1467L81.363 28.6933ZM76.016 25.96V30.3H78.016V25.96H76.016ZM76.016 30.3C76.016 30.5687 75.9892 30.7455 75.959 30.8522C75.929 30.958 75.9081 30.9521 75.9483 30.914L77.3238 32.366C77.8923 31.8274 78.016 31.0115 78.016 30.3H76.016ZM75.9289 30.9329C75.9596 30.9022 75.8911 31 75.476 31V33C76.1276 33 76.8324 32.8578 77.3431 32.3471L75.9289 30.9329ZM75.476 31C75.0164 31 74.8833 30.8926 74.8657 30.8759L73.4864 32.3241C74.0288 32.8407 74.7623 33 75.476 33V31ZM74.8657 30.8759C74.8774 30.887 74.756 30.7768 74.756 30.26H72.756C72.756 30.9965 72.9146 31.7796 73.4864 32.3241L74.8657 30.8759ZM74.756 30.26V20.6H72.756V30.26H74.756ZM74.756 20.6C74.756 20 74.9072 19.723 75.0431 19.5871L73.6289 18.1729C72.9915 18.8103 72.756 19.68 72.756 20.6H74.756ZM75.0431 19.5871C75.1885 19.4417 75.4541 19.3 75.996 19.3V17.3C75.098 17.3 74.2569 17.5449 73.6289 18.1729L75.0431 19.5871ZM75.996 19.3C76.3959 19.3 76.6042 19.3672 76.6972 19.4179L77.6549 17.6621C77.1612 17.3928 76.5828 17.3 75.996 17.3V19.3ZM76.7446 19.4421C76.9095 19.521 77.179 19.7093 77.5606 20.0786L78.9514 18.6414C78.5064 18.2107 78.0559 17.8523 77.6075 17.6379L76.7446 19.4421ZM77.5503 20.0685L82.6103 25.1085L84.0217 23.6915L78.9617 18.6515L77.5503 20.0685ZM84.316 24.4V20.04H82.316V24.4H84.316ZM84.316 20.04C84.316 19.6129 84.4207 19.4895 84.4431 19.4671L83.0289 18.0529C82.4913 18.5905 82.316 19.3205 82.316 20.04H84.316ZM84.4431 19.4671C84.514 19.3962 84.634 19.32 84.916 19.32V17.32C84.2113 17.32 83.5447 17.5371 83.0289 18.0529L84.4431 19.4671ZM84.916 19.32C85.3654 19.32 85.4496 19.4283 85.431 19.4087L86.881 18.0312C86.3558 17.4784 85.6133 17.32 84.916 17.32V19.32ZM85.431 19.4087C85.4259 19.4033 85.4525 19.4275 85.4812 19.5256C85.5108 19.6268 85.536 19.7858 85.536 20.02H87.536C87.536 19.3169 87.3939 18.5711 86.881 18.0312L85.431 19.4087ZM85.536 20.02V30.1H87.536V20.02H85.536ZM104.175 19.14L103.672 20.0038V20.0038L104.175 19.14ZM105.715 21.74L104.872 21.2031L104.865 21.2142L104.858 21.2255L105.715 21.74ZM105.395 22.04L105.802 22.9538L105.822 22.9446L105.843 22.9344L105.395 22.04ZM103.915 21.76L103.449 22.6444L103.458 22.6495L103.468 22.6544L103.915 21.76ZM102.315 21.02L101.919 21.9381L101.928 21.9419L101.937 21.9455L102.315 21.02ZM99.6954 22.18L98.8542 22.7208L98.877 22.7563L98.9028 22.7897L99.6954 22.18ZM100.315 22.74L99.7342 23.5537L99.7473 23.5631L99.7607 23.5721L100.315 22.74ZM101.135 23.24L100.653 24.1162V24.1162L101.135 23.24ZM102.235 23.84L101.758 24.7189L101.768 24.7242L101.778 24.7293L102.235 23.84ZM103.415 24.48L102.912 25.3438L102.919 25.3482L103.415 24.48ZM105.575 26.16L104.785 26.7726V26.7726L105.575 26.16ZM98.4754 31.92L98.2646 32.8975L98.2684 32.8983L98.4754 31.92ZM96.6754 31.34L96.2473 32.2438L96.2563 32.248L96.6754 31.34ZM95.3154 30.54L94.711 31.3367L94.7175 31.3416L94.724 31.3464L95.3154 30.54ZM94.4354 29.64L95.273 29.0937L94.4354 29.64ZM94.4154 28.04L93.6859 27.3561L93.6843 27.3577L94.4154 28.04ZM97.2954 28.26L96.9756 29.2076L96.9863 29.211L97.2954 28.26ZM100.695 27.84L99.7591 28.1911L99.7873 28.2664L99.8272 28.3361L100.695 27.84ZM100.455 27.54L99.7483 28.2471L99.7923 28.2911L99.8415 28.3294L100.455 27.54ZM100.075 27.26L99.5019 28.0792L99.5476 28.1112L99.5965 28.1379L100.075 27.26ZM99.4954 26.92L99.0098 27.7942L99.0196 27.7997L99.0297 27.8049L99.4954 26.92ZM98.7554 26.52L98.2698 27.3942L98.2796 27.3996L98.2896 27.4049L98.7554 26.52ZM96.6354 25.36L97.1315 24.4918L97.129 24.4903L96.6354 25.36ZM95.3554 24.32L94.5892 24.9626L94.5952 24.9698L94.6013 24.9768L95.3554 24.32ZM94.5954 23.1L93.6628 23.461L93.6669 23.4714L94.5954 23.1ZM95.8554 19.22L95.2783 18.4033V18.4033L95.8554 19.22ZM100.115 19.16C101.564 19.16 102.735 19.4576 103.672 20.0038L104.679 18.2762C103.376 17.5157 101.84 17.16 100.115 17.16V19.16ZM103.672 20.0038C104.722 20.6167 104.855 21.051 104.855 21.22H106.855C106.855 19.9224 105.869 18.97 104.679 18.2762L103.672 20.0038ZM104.855 21.22C104.855 21.2421 104.853 21.2472 104.855 21.24C104.856 21.2366 104.857 21.2311 104.86 21.2242C104.864 21.2172 104.867 21.2101 104.872 21.2031L106.559 22.2769C106.769 21.9467 106.855 21.5809 106.855 21.22H104.855ZM104.858 21.2255C104.863 21.2178 104.873 21.2027 104.891 21.1855C104.91 21.168 104.93 21.1546 104.948 21.1456L105.843 22.9344C106.154 22.7789 106.399 22.5435 106.573 22.2545L104.858 21.2255ZM104.989 21.1262C104.999 21.1219 105.006 21.12 105.009 21.1194C105.012 21.1189 105.008 21.12 104.995 21.12V23.12C105.266 23.12 105.539 23.0703 105.802 22.9538L104.989 21.1262ZM104.995 21.12C105.027 21.12 104.992 21.1247 104.862 21.0813C104.741 21.041 104.576 20.9723 104.363 20.8656L103.468 22.6544C103.956 22.8983 104.501 23.12 104.995 23.12V21.12ZM104.382 20.8756C103.869 20.6049 103.306 20.3448 102.694 20.0945L101.937 21.9455C102.498 22.1752 103.002 22.4085 103.449 22.6444L104.382 20.8756ZM102.712 20.1019C102.035 19.8098 101.359 19.64 100.695 19.64V21.64C101.019 21.64 101.422 21.7235 101.919 21.9381L102.712 20.1019ZM100.695 19.64C100.192 19.64 99.6293 19.7382 99.1793 20.1043C98.6898 20.5025 98.5154 21.0651 98.5154 21.6H100.515C100.515 21.5406 100.525 21.5343 100.514 21.5591C100.509 21.572 100.5 21.5895 100.486 21.6085C100.472 21.6277 100.456 21.6436 100.441 21.6557C100.411 21.6802 100.401 21.6759 100.441 21.6651C100.483 21.6538 100.563 21.64 100.695 21.64V19.64ZM98.5154 21.6C98.5154 22.0124 98.6423 22.3911 98.8542 22.7208L100.537 21.6392C100.521 21.6146 100.516 21.6012 100.515 21.5986C100.515 21.5971 100.515 21.597 100.515 21.598C100.515 21.5984 100.515 21.5988 100.515 21.5993C100.515 21.5995 100.515 21.5997 100.515 21.5998C100.515 21.5999 100.515 21.5999 100.515 21.5999C100.515 21.6 100.515 21.6 100.515 21.6C100.515 21.6 100.515 21.6 100.515 21.6C100.515 21.6 100.515 21.6 100.515 21.6H98.5154ZM98.9028 22.7897C99.1203 23.0725 99.4144 23.3253 99.7342 23.5537L100.897 21.9263C100.656 21.7547 100.537 21.6342 100.488 21.5703L98.9028 22.7897ZM99.7607 23.5721C100.062 23.7728 100.359 23.9545 100.653 24.1162L101.617 22.3638C101.378 22.2321 101.129 22.0805 100.87 21.9079L99.7607 23.5721ZM100.653 24.1162C100.923 24.2642 101.291 24.4652 101.758 24.7189L102.712 22.9611C102.246 22.7081 101.882 22.5092 101.617 22.3638L100.653 24.1162ZM101.778 24.7293C102.235 24.9642 102.612 25.1688 102.912 25.3438L103.919 23.6162C103.579 23.4178 103.169 23.1958 102.693 22.9507L101.778 24.7293ZM102.919 25.3482C103.905 25.9114 104.491 26.3933 104.785 26.7726L106.366 25.5474C105.833 24.8601 104.979 24.2219 103.912 23.6118L102.919 25.3482ZM104.785 26.7726C105.058 27.1255 105.195 27.5219 105.195 28H107.195C107.195 27.0915 106.919 26.2612 106.366 25.5474L104.785 26.7726ZM105.195 28C105.195 29.1319 104.83 29.8379 104.205 30.3019C103.523 30.8074 102.381 31.14 100.615 31.14V33.14C102.57 33.14 104.218 32.7826 105.396 31.9081C106.631 30.9921 107.195 29.6281 107.195 28H105.195ZM100.615 31.14C99.9492 31.14 99.3053 31.0734 98.6824 30.9417L98.2684 32.8983C99.0321 33.0599 99.8149 33.14 100.615 33.14V31.14ZM98.6862 30.9425C98.0633 30.8081 97.5354 30.6356 97.0945 30.432L96.2563 32.248C96.8554 32.5244 97.5275 32.7386 98.2646 32.8975L98.6862 30.9425ZM97.1035 30.4363C96.6469 30.22 96.2494 29.9849 95.9068 29.7336L94.724 31.3464C95.1814 31.6818 95.6905 31.98 96.2473 32.2437L97.1035 30.4363ZM95.9198 29.7433C95.5966 29.4982 95.3935 29.2785 95.273 29.0937L93.5978 30.1863C93.8773 30.6148 94.2608 30.9952 94.711 31.3367L95.9198 29.7433ZM95.273 29.0937C95.1407 28.8909 95.1354 28.7929 95.1354 28.78H93.1354C93.1354 29.3005 93.3301 29.7758 93.5978 30.1863L95.273 29.0937ZM95.1354 28.78C95.1354 28.7598 95.137 28.7465 95.1383 28.7391C95.1389 28.7353 95.1396 28.7327 95.14 28.7312C95.1404 28.7297 95.1406 28.729 95.1407 28.7289C95.1407 28.7288 95.1406 28.729 95.1405 28.7294C95.1403 28.7297 95.1402 28.7299 95.1402 28.7299C95.1402 28.7298 95.1406 28.7293 95.1415 28.7281C95.1424 28.7269 95.1439 28.725 95.1465 28.7223L93.6843 27.3577C93.3117 27.757 93.1354 28.2534 93.1354 28.78H95.1354ZM95.1449 28.7239C95.1413 28.7278 95.1363 28.7321 95.1311 28.7356C95.126 28.7389 95.1244 28.739 95.1291 28.7372C95.1393 28.7334 95.1824 28.72 95.2754 28.72V26.72C94.7067 26.72 94.124 26.8887 93.6859 27.3561L95.1449 28.7239ZM95.2754 28.72C95.269 28.72 95.3915 28.73 95.7321 28.8211C96.0395 28.9032 96.4519 29.0307 96.9756 29.2075L97.6152 27.3125C97.0722 27.1293 96.6146 26.9868 96.2487 26.8889C95.916 26.8 95.5618 26.72 95.2754 26.72V28.72ZM96.9863 29.211C98.0921 29.5704 99.0682 29.78 99.8754 29.78V27.78C99.376 27.78 98.632 27.6429 97.6045 27.309L96.9863 29.211ZM99.8754 29.78C100.259 29.78 100.724 29.7195 101.118 29.4485C101.578 29.1311 101.775 28.6442 101.775 28.16H99.7754C99.7754 28.1423 99.7789 28.0785 99.819 27.9957C99.8614 27.9081 99.924 27.8422 99.9831 27.8015C100.036 27.7652 100.066 27.7618 100.045 27.7666C100.024 27.7714 99.9712 27.78 99.8754 27.78V29.78ZM101.775 28.16C101.775 27.8867 101.713 27.6053 101.564 27.3439L99.8272 28.3361C99.8074 28.3015 99.7936 28.266 99.7853 28.2325C99.777 28.1997 99.7754 28.1744 99.7754 28.16H101.775ZM101.632 27.4889C101.509 27.1604 101.288 26.9206 101.069 26.7506L99.8415 28.3294C99.863 28.3461 99.8022 28.3063 99.7591 28.1911L101.632 27.4889ZM101.163 26.8329C100.981 26.6519 100.776 26.503 100.554 26.3821L99.5965 28.1379C99.6683 28.177 99.716 28.2148 99.7483 28.2471L101.163 26.8329ZM100.649 26.4408C100.465 26.3118 100.228 26.1757 99.9611 26.0351L99.0297 27.8049C99.2691 27.931 99.4195 28.0215 99.5019 28.0792L100.649 26.4408ZM99.981 26.0458C99.7342 25.9087 99.4809 25.7718 99.2211 25.6351L98.2896 27.4049C98.5366 27.5349 98.7766 27.6646 99.0098 27.7942L99.981 26.0458ZM99.241 25.6458C98.9939 25.5085 98.6683 25.3322 98.266 25.1176L97.3248 26.8824C97.7225 27.0945 98.0369 27.2648 98.2698 27.3942L99.241 25.6458ZM98.266 25.1176C97.8741 24.9086 97.496 24.7 97.1315 24.4918L96.1393 26.2282C96.5215 26.4467 96.9167 26.6647 97.3248 26.8824L98.266 25.1176ZM97.129 24.4903C96.7304 24.2641 96.3927 23.9884 96.1095 23.6632L94.6013 24.9768C95.0381 25.4782 95.5537 25.8959 96.1418 26.2297L97.129 24.4903ZM96.1216 23.6774C95.8266 23.3257 95.636 23.009 95.5239 22.7286L93.6669 23.4714C93.8748 23.991 94.1908 24.4876 94.5892 24.9626L96.1216 23.6774ZM95.528 22.739C95.4007 22.4102 95.3554 22.1541 95.3554 21.96H93.3554C93.3554 22.4592 93.4701 22.9632 93.6628 23.461L95.528 22.739ZM95.3554 21.96C95.3554 21.1986 95.6688 20.5764 96.4325 20.0367L95.2783 18.4033C94.042 19.277 93.3554 20.4814 93.3554 21.96H95.3554ZM96.4325 20.0367C97.1983 19.4955 98.3841 19.16 100.115 19.16V17.16C98.1667 17.16 96.5125 17.5311 95.2783 18.4033L96.4325 20.0367ZM121.042 31.32L121.803 31.9689L121.808 31.9635L121.812 31.958L121.042 31.32ZM117.582 31.38L116.818 32.0249L116.823 32.0309L116.828 32.0368L117.582 31.38ZM117.042 29.14H118.042L118.042 29.1312L117.042 29.14ZM117.022 26.88L118.022 26.8712L118.013 25.88H117.022V26.88ZM112.942 26.88V25.88H111.942V26.88H112.942ZM112.382 31.32L111.61 30.6843L112.382 31.32ZM108.902 31.38L108.138 32.0249L108.143 32.0309L108.148 32.0368L108.902 31.38ZM108.362 29.14H109.362L109.362 29.1329L108.362 29.14ZM108.302 20.7L107.302 20.7L107.302 20.7071L108.302 20.7ZM108.922 18.88L108.251 18.139L108.245 18.1443L108.239 18.1497L108.922 18.88ZM112.362 18.74L111.744 19.5263L111.751 19.5316L111.758 19.5367L112.362 18.74ZM112.942 23.88H111.942V24.88H112.942V23.88ZM117.002 23.88V24.88H118.002V23.88H117.002ZM117.302 19.32L116.434 18.8238L116.428 18.8344L117.302 19.32ZM118.102 18.54L118.519 19.4491L118.527 19.4454L118.535 19.4415L118.102 18.54ZM121.022 18.74L120.418 19.5367L120.424 19.5416L120.431 19.5464L121.022 18.74ZM120.622 29C120.622 30.0099 120.432 30.4893 120.272 30.682L121.812 31.958C122.426 31.2174 122.622 30.1501 122.622 29H120.622ZM120.281 30.6711C120.141 30.8355 119.876 31 119.282 31V33C120.262 33 121.17 32.7111 121.803 31.9689L120.281 30.6711ZM119.282 31C118.675 31 118.438 30.8403 118.336 30.7232L116.828 32.0368C117.446 32.7463 118.343 33 119.282 33V31ZM118.346 30.7351C118.226 30.5929 118.042 30.1571 118.042 29.14H116.042C116.042 30.2563 116.218 31.3137 116.818 32.0249L118.346 30.7351ZM118.042 29.1312L118.022 26.8712L116.022 26.8888L116.042 29.1488L118.042 29.1312ZM117.022 25.88H112.942V27.88H117.022V25.88ZM111.942 26.88V29H113.942V26.88H111.942ZM111.942 29C111.942 30.0364 111.754 30.5098 111.61 30.6843L113.154 31.9557C113.757 31.2235 113.942 30.1503 113.942 29H111.942ZM111.61 30.6843C111.492 30.8275 111.238 31 110.602 31V33C111.593 33 112.525 32.7192 113.154 31.9557L111.61 30.6843ZM110.602 31C109.995 31 109.758 30.8403 109.656 30.7232L108.148 32.0368C108.766 32.7463 109.663 33 110.602 33V31ZM109.666 30.7351C109.546 30.5929 109.362 30.1571 109.362 29.14H107.362C107.362 30.2563 107.538 31.3137 108.138 32.0249L109.666 30.7351ZM109.362 29.1329L109.302 20.6929L107.302 20.7071L107.362 29.1471L109.362 29.1329ZM109.302 20.7C109.302 20.0215 109.472 19.735 109.605 19.6103L108.239 18.1497C107.546 18.7983 107.302 19.7252 107.302 20.7H109.302ZM109.594 19.621C109.8 19.4337 110.104 19.3 110.602 19.3V17.3C109.714 17.3 108.897 17.553 108.251 18.139L109.594 19.621ZM110.602 19.3C111.318 19.3 111.632 19.4383 111.744 19.5263L112.98 17.9537C112.345 17.4551 111.486 17.3 110.602 17.3V19.3ZM111.758 19.5367C111.748 19.5292 111.795 19.5567 111.846 19.7148C111.9 19.8785 111.942 20.1371 111.942 20.52H113.942C113.942 19.5621 113.749 18.5373 112.967 17.9433L111.758 19.5367ZM111.942 20.52V23.88H113.942V20.52H111.942ZM112.942 24.88H117.002V22.88H112.942V24.88ZM118.002 23.88V20.7H116.002V23.88H118.002ZM118.002 20.7C118.002 20.2514 118.083 19.9732 118.176 19.8056L116.428 18.8344C116.121 19.3868 116.002 20.0286 116.002 20.7H118.002ZM118.17 19.8161C118.303 19.5834 118.427 19.4909 118.519 19.4491L117.685 17.6309C117.137 17.8824 116.728 18.31 116.434 18.8239L118.17 19.8161ZM118.535 19.4415C118.706 19.3593 118.945 19.3 119.282 19.3V17.3C118.712 17.3 118.165 17.4007 117.669 17.6385L118.535 19.4415ZM119.282 19.3C119.957 19.3 120.281 19.4331 120.418 19.5367L121.627 17.9433C120.99 17.4603 120.153 17.3 119.282 17.3V19.3ZM120.431 19.5464C120.431 19.5468 120.441 19.5533 120.456 19.5767C120.473 19.6016 120.499 19.6474 120.525 19.7244C120.578 19.8845 120.622 20.1396 120.622 20.52H122.622C122.622 19.553 122.419 18.524 121.613 17.9336L120.431 19.5464ZM120.622 20.52V29H122.622V20.52H120.622ZM131.87 28.6L131.102 27.9598L131.095 27.9675L131.089 27.9753L131.87 28.6ZM132.57 27.12L131.6 26.8775L131.597 26.8879L131.595 26.8984L132.57 27.12ZM132.57 23.32L131.597 23.5526L131.599 23.5575L132.57 23.32ZM131.85 21.76L131.05 22.36L131.056 22.3679L131.062 22.3756L131.85 21.76ZM128.87 23.32L127.902 23.0676V23.0676L128.87 23.32ZM128.85 27.12L127.88 27.3625L127.882 27.3729L127.885 27.3831L128.85 27.12ZM129.57 28.6L128.789 29.2247L128.795 29.2325L128.802 29.2402L129.57 28.6ZM134.25 31.34L134.693 32.2367L134.702 32.2322L134.25 31.34ZM127.15 31.34L126.694 32.2298L126.7 32.2333L126.707 32.2367L127.15 31.34ZM124.65 28.96L125.509 28.4487L124.65 28.96ZM125.65 20.1L126.35 20.8144L126.35 20.8144L125.65 20.1ZM135.77 20.1L135.07 20.8144L135.074 20.818L135.77 20.1ZM136.77 28.96L135.915 28.4407L135.911 28.4487L136.77 28.96ZM130.71 30.2C131.509 30.2 132.169 29.827 132.651 29.2247L131.089 27.9753C130.931 28.173 130.817 28.2 130.71 28.2V30.2ZM132.638 29.2402C133.087 28.7014 133.382 28.0582 133.545 27.3416L131.595 26.8984C131.491 27.3551 131.319 27.6986 131.102 27.9598L132.638 29.2402ZM133.54 27.3625C133.708 26.6889 133.79 25.9802 133.79 25.24H131.79C131.79 25.8332 131.725 26.3777 131.6 26.8775L133.54 27.3625ZM133.79 25.24C133.79 24.4879 133.709 23.7676 133.541 23.0825L131.599 23.5575C131.724 24.0724 131.79 24.6321 131.79 25.24H133.79ZM133.543 23.0874C133.368 22.3575 133.073 21.7011 132.638 21.1444L131.062 22.3756C131.294 22.6722 131.479 23.0559 131.597 23.5526L133.543 23.0874ZM132.65 21.16C132.186 20.5414 131.533 20.12 130.71 20.12V22.12C130.767 22.12 130.874 22.1253 131.05 22.36L132.65 21.16ZM130.71 20.12C129.89 20.12 129.246 20.5514 128.79 21.16L130.39 22.36C130.573 22.1153 130.676 22.12 130.71 22.12V20.12ZM128.79 21.16C128.379 21.7082 128.089 22.3518 127.902 23.0676L129.838 23.5724C129.971 23.0615 130.161 22.6652 130.39 22.36L128.79 21.16ZM127.902 23.0676C127.72 23.7675 127.63 24.4926 127.63 25.24H129.63C129.63 24.6541 129.7 24.0992 129.838 23.5724L127.902 23.0676ZM127.63 25.24C127.63 25.9802 127.711 26.6889 127.88 27.3625L129.82 26.8775C129.695 26.3777 129.63 25.8332 129.63 25.24H127.63ZM127.885 27.3831C128.075 28.0773 128.369 28.7 128.789 29.2247L130.351 27.9753C130.131 27.7 129.945 27.336 129.815 26.8569L127.885 27.3831ZM128.802 29.2402C129.279 29.8131 129.922 30.2 130.71 30.2V28.2C130.645 28.2 130.527 28.1869 130.338 27.9598L128.802 29.2402ZM133.807 30.4433C132.908 30.8874 131.876 31.12 130.69 31.12V33.12C132.144 33.12 133.485 32.8326 134.693 32.2367L133.807 30.4433ZM130.69 31.12C129.519 31.12 128.493 30.888 127.593 30.4433L126.707 32.2367C127.913 32.832 129.247 33.12 130.69 33.12V31.12ZM127.606 30.4502C126.742 30.0069 126.045 29.3487 125.509 28.4487L123.791 29.4713C124.508 30.6779 125.478 31.6064 126.694 32.2298L127.606 30.4502ZM125.509 28.4487C124.989 27.5739 124.71 26.5166 124.71 25.24H122.71C122.71 26.8167 123.058 28.2395 123.791 29.4713L125.509 28.4487ZM124.71 25.24C124.71 23.293 125.285 21.8572 126.35 20.8144L124.95 19.3856C123.428 20.8761 122.71 22.867 122.71 25.24H124.71ZM126.35 20.8144C127.445 19.7418 128.868 19.18 130.71 19.18V17.18C128.419 17.18 126.469 17.8982 124.95 19.3856L126.35 20.8144ZM130.71 19.18C132.552 19.18 133.975 19.7418 135.07 20.8144L136.47 19.3856C134.951 17.8982 133.001 17.18 130.71 17.18V19.18ZM135.074 20.818C136.15 21.8614 136.73 23.296 136.73 25.24H138.73C138.73 22.864 138.003 20.8719 136.466 19.382L135.074 20.818ZM136.73 25.24C136.73 26.5129 136.446 27.5672 135.915 28.4407L137.625 29.4793C138.374 28.2461 138.73 26.8205 138.73 25.24H136.73ZM135.911 28.4487C135.377 29.3455 134.676 30.0036 133.798 30.4478L134.702 32.2322C135.931 31.6097 136.91 30.6811 137.629 29.4713L135.911 28.4487ZM147.204 21.88L146.251 22.1832L146.255 22.1962L147.204 21.88ZM146.704 21.22L146.16 22.0596L146.171 22.0666L146.182 22.0733L146.704 21.22ZM145.944 20.94L145.748 21.9206L145.775 21.926L145.802 21.9299L145.944 20.94ZM144.824 20.86V19.86H143.824V20.86H144.824ZM144.824 25.26H143.824V26.26H144.824V25.26ZM145.804 25.16L145.582 24.1848L145.572 24.1872L145.804 25.16ZM146.604 24.82L146.049 23.9879L146.604 24.82ZM147.144 24.14L146.227 23.7413L146.222 23.7513L146.218 23.7614L147.144 24.14ZM144.224 31.32L144.974 31.9816L144.978 31.9762L144.983 31.9708L144.224 31.32ZM140.564 31.38L139.823 32.0515L139.828 32.0574L139.833 32.0632L140.564 31.38ZM140.644 18.9L141.304 19.6512L141.31 19.6456L141.316 19.6399L140.644 18.9ZM148.344 18.66L148.033 19.6104L148.04 19.613L148.048 19.6154L148.344 18.66ZM150.244 19.64L149.619 20.4209L149.63 20.4294L149.641 20.4377L150.244 19.64ZM151.504 21.22L150.595 21.6367L150.6 21.6482L150.605 21.6596L151.504 21.22ZM151.144 25.8L151.929 26.4192L151.935 26.4119L151.144 25.8ZM148.984 27.36L149.345 28.2923V28.2923L148.984 27.36ZM144.824 27.88V26.88H143.824V27.88H144.824ZM148.344 23.04C148.344 22.5012 148.295 21.9914 148.152 21.5638L146.255 22.1962C146.299 22.3286 146.344 22.5922 146.344 23.04H148.344ZM148.157 21.5768C147.998 21.0775 147.69 20.6511 147.225 20.3667L146.182 22.0733C146.197 22.0823 146.223 22.0959 146.251 22.1832L148.157 21.5768ZM147.247 20.3804C146.893 20.1514 146.501 20.0095 146.085 19.95L145.802 21.9299C145.946 21.9505 146.061 21.9953 146.16 22.0596L147.247 20.3804ZM146.14 19.9594C145.778 19.887 145.328 19.86 144.824 19.86V21.86C145.28 21.86 145.576 21.8864 145.748 21.9206L146.14 19.9594ZM143.824 20.86V25.26H145.824V20.86H143.824ZM144.824 26.26C145.253 26.26 145.661 26.222 146.035 26.1328L145.572 24.1872C145.386 24.2314 145.141 24.26 144.824 24.26V26.26ZM146.025 26.1351C146.432 26.0426 146.813 25.8825 147.158 25.652L146.049 23.9879C145.915 24.0775 145.762 24.144 145.582 24.1849L146.025 26.1351ZM147.158 25.6521C147.581 25.3704 147.881 24.9777 148.069 24.5186L146.218 23.7614C146.166 23.889 146.107 23.9496 146.049 23.9879L147.158 25.6521ZM148.061 24.5387C148.262 24.0767 148.344 23.5674 148.344 23.04H146.344C146.344 23.3659 146.292 23.59 146.227 23.7413L148.061 24.5387ZM143.824 29C143.824 30.0046 143.628 30.4779 143.464 30.6692L144.983 31.9708C145.619 31.2287 145.824 30.1554 145.824 29H143.824ZM143.474 30.6584C143.326 30.8259 143.034 31 142.384 31V33C143.387 33 144.321 32.7208 144.974 31.9816L143.474 30.6584ZM142.384 31C141.705 31 141.419 30.8302 141.294 30.6968L139.833 32.0632C140.482 32.7565 141.409 33 142.384 33V31ZM141.305 30.7085C141.178 30.5689 140.984 30.1465 140.984 29.14H138.984C138.984 30.2669 139.176 31.3377 139.823 32.0515L141.305 30.7085ZM140.984 29.14V20.7H138.984V29.14H140.984ZM140.984 20.7C140.984 20.0581 141.154 19.7828 141.304 19.6512L139.984 18.1488C139.253 18.7905 138.984 19.7152 138.984 20.7H140.984ZM141.316 19.6399C141.535 19.441 141.857 19.3 142.384 19.3V17.3C141.47 17.3 140.632 17.559 139.971 18.1601L141.316 19.6399ZM142.384 19.3H145.944V17.3H142.384V19.3ZM145.944 19.3C146.718 19.3 147.411 19.407 148.033 19.6104L148.655 17.7096C147.809 17.433 146.903 17.3 145.944 17.3V19.3ZM148.048 19.6154C148.677 19.8096 149.195 20.0816 149.619 20.4209L150.868 18.8591C150.226 18.3451 149.477 17.9637 148.639 17.7046L148.048 19.6154ZM149.641 20.4377C150.052 20.7485 150.368 21.1427 150.595 21.6367L152.413 20.8033C152.052 20.0173 151.529 19.3582 150.847 18.8423L149.641 20.4377ZM150.605 21.6596C150.838 22.1351 150.964 22.6823 150.964 23.32H152.964C152.964 22.411 152.783 21.5582 152.402 20.7804L150.605 21.6596ZM150.964 23.32C150.964 24.0593 150.755 24.6675 150.353 25.1881L151.935 26.4119C152.625 25.5192 152.964 24.474 152.964 23.32H150.964ZM150.358 25.1808C149.932 25.722 149.363 26.14 148.622 26.4277L149.345 28.2923C150.391 27.8866 151.262 27.2647 151.929 26.4192L150.358 25.1808ZM148.622 26.4277C147.862 26.7228 146.98 26.88 145.964 26.88V28.88C147.187 28.88 148.319 28.6906 149.345 28.2923L148.622 26.4277ZM145.964 26.88H144.824V28.88H145.964V26.88ZM143.824 27.88V29H145.824V27.88H143.824Z" fill="#0A64A4" mask="url(#path-2-outside-1_24_63)"/>
</svg>
